<svg width="34" height="34" viewBox="0 0 34 34" fill="none" xmlns="http://www.w3.org/2000/svg">
<path d="M24.3899 25.3518C24.6206 22.5905 24.8271 19.7053 24.8271 16.9999C24.8271 13.2259 24.4239 9.56118 24.1131 6.05918C24.0593 5.49278 23.816 4.96111 23.4223 4.55031C23.0287 4.1395 22.5079 3.87362 21.9444 3.79575C19.1636 3.41689 16.2591 2.93604 13.2719 2.93604C10.2848 2.93604 7.38021 3.41689 4.59707 3.79575C3.43864 3.95604 2.53278 4.89346 2.42836 6.05918C2.1175 9.56118 1.71436 13.2259 1.71436 16.9999C1.71436 20.0599 1.9815 23.0446 2.24621 25.9322C2.35575 27.0687 2.84421 28.1354 3.63307 28.9608C4.42194 29.7862 5.46541 30.3224 6.59578 30.4833C8.76207 30.7845 10.9915 31.0662 13.2719 31.0662C16.2834 31.0662 20.3221 30.9496 23.2849 30.7675C24.7861 30.6737 26.2862 30.5644 27.7851 30.4396C28.876 30.3527 29.8984 29.8736 30.6633 29.0909C31.4281 28.3082 31.8835 27.2749 31.9452 26.1823C32.1711 22.0465 32.2585 17.6095 32.2804 13.2745C32.2816 12.9556 32.2199 12.6396 32.0986 12.3447C31.9773 12.0498 31.7989 11.7818 31.5736 11.5561C31.3484 11.3304 31.0807 11.1514 30.786 11.0295C30.4914 10.9077 30.1755 10.8452 29.8566 10.8459H24.5405" stroke="#4753BF" stroke-width="2.42857" stroke-linecap="round" stroke-linejoin="round"/>
<path d="M17.7599 22.9985H8.85923M8.35894 15.6885C8.39945 15.9703 8.534 16.2301 8.74075 16.4259C8.94751 16.6216 9.21433 16.7417 9.49794 16.7668C10.7414 16.8785 12.0382 17.0096 13.3715 17.0096C14.7072 17.0096 16.0017 16.8785 17.2475 16.7668C17.5307 16.7412 17.797 16.6208 18.0032 16.4252C18.2095 16.2295 18.3437 15.9699 18.3841 15.6885C18.5128 14.7923 18.6512 13.8622 18.6512 12.9078C18.6512 11.9533 18.5128 11.0232 18.3841 10.127C18.3442 9.84516 18.2102 9.58503 18.0039 9.38886C17.7976 9.19269 17.531 9.07198 17.2475 9.04632C16.0017 8.93704 14.7048 8.80347 13.3715 8.80347C12.0382 8.80347 10.7414 8.93704 9.49794 9.04632C9.21398 9.07146 8.94687 9.19194 8.74007 9.38815C8.53327 9.58437 8.39895 9.84479 8.35894 10.127C8.23023 11.0232 8.0918 11.9533 8.0918 12.9078C8.0918 13.8622 8.23023 14.7923 8.35894 15.6885Z" stroke="#4753BF" stroke-width="2.42857" stroke-linecap="round" stroke-linejoin="round"/>
</svg>
