<svg width="34" height="34" viewBox="0 0 34 34" fill="none" xmlns="http://www.w3.org/2000/svg">
<path fill-rule="evenodd" clip-rule="evenodd" d="M22.2121 2.38011C22.2717 2.5065 22.3058 2.6434 22.3124 2.78298C22.319 2.92256 22.298 3.06208 22.2507 3.19354C22.2033 3.325 22.1305 3.44582 22.0363 3.54909C21.9422 3.65236 21.8286 3.73605 21.7021 3.79536L13.9614 7.43761H19.9128C22.5167 7.43761 24.5793 7.43761 26.1929 7.65436C27.8532 7.8782 29.1977 8.34853 30.2587 9.4082C31.3184 10.4693 31.7887 11.8137 32.0126 13.474C32.2293 15.089 32.2293 17.1503 32.2293 19.7541V19.9142C32.2293 22.5166 32.2293 24.5793 32.0126 26.1929C31.7887 27.8546 31.3184 29.199 30.2587 30.2587C29.1977 31.3184 27.8532 31.7887 26.1929 32.0125C24.5779 32.2293 22.5167 32.2293 19.9128 32.2293H14.0875C11.4837 32.2293 9.421 32.2293 7.80741 32.0125C6.14708 31.7887 4.80266 31.3184 3.74158 30.2587C2.68191 29.199 2.21158 27.8546 1.98775 26.1929C1.771 24.5793 1.771 22.5166 1.771 19.9142V19.7541C1.771 17.1503 1.771 15.0876 1.98775 13.474C2.21158 11.8137 2.68191 10.4693 3.74158 9.4082C4.80266 8.34853 6.14708 7.8782 7.80741 7.65436C8.09641 7.61659 8.40005 7.58448 8.71833 7.55803L8.75658 7.53961L20.7982 1.87295C21.0532 1.75292 21.3453 1.73907 21.6105 1.83445C21.8756 1.92982 22.092 2.12661 22.2121 2.38153M8.08933 9.76095C6.66416 9.9522 5.8425 10.312 5.24183 10.9113C4.644 11.5105 4.28416 12.3322 4.09291 13.7574C3.89741 15.2137 3.89458 17.1319 3.89458 19.8349C3.89458 22.535 3.89741 24.4532 4.09291 25.9095C4.28416 27.3347 4.644 28.1564 5.24325 28.757C5.8425 29.3549 6.66416 29.7147 8.08933 29.9059C9.54566 30.1029 11.4638 30.1043 14.1654 30.1043H19.8321C22.5337 30.1043 24.4532 30.1029 25.9096 29.9059C27.3333 29.7147 28.155 29.3549 28.7542 28.7556C29.3535 28.1564 29.7133 27.3347 29.9046 25.9095C30.1001 24.4546 30.1029 22.535 30.1029 19.8334C30.1029 17.1319 30.1001 15.2137 29.9046 13.7574C29.7133 12.3322 29.3535 11.5105 28.7542 10.9113C28.155 10.312 27.3333 9.9522 25.9082 9.76095C24.4532 9.56545 22.5337 9.56261 19.8321 9.56261H14.1654C11.4638 9.56261 9.54708 9.56545 8.08933 9.76095ZM6.021 15.5834C6.021 14.5502 6.43145 13.5593 7.16206 12.8287C7.89267 12.0981 8.88359 11.6876 9.91683 11.6876H24.0835C25.1167 11.6876 26.1077 12.0981 26.8383 12.8287C27.5689 13.5593 27.9793 14.5502 27.9793 15.5834C27.9793 16.6167 27.5689 17.6076 26.8383 18.3382C26.1077 19.0688 25.1167 19.4793 24.0835 19.4793H9.91683C8.88359 19.4793 7.89267 19.0688 7.16206 18.3382C6.43145 17.6076 6.021 16.6167 6.021 15.5834ZM22.3127 17.3543V16.2918C22.3127 16.01 22.2007 15.7397 22.0015 15.5405C21.8022 15.3412 21.532 15.2293 21.2502 15.2293C20.9684 15.2293 20.6981 15.3412 20.4989 15.5405C20.2996 15.7397 20.1877 16.01 20.1877 16.2918V17.3543H9.91683C9.44718 17.3543 8.99676 17.1677 8.66466 16.8356C8.33257 16.5035 8.146 16.0531 8.146 15.5834C8.146 15.1138 8.33257 14.6634 8.66466 14.3313C8.99676 13.9992 9.44718 13.8126 9.91683 13.8126H24.0835C24.5531 13.8126 25.0036 13.9992 25.3357 14.3313C25.6678 14.6634 25.8543 15.1138 25.8543 15.5834C25.8543 16.0531 25.6678 16.5035 25.3357 16.8356C25.0036 17.1677 24.5531 17.3543 24.0835 17.3543H22.3127ZM10.6252 23.0209C10.3434 23.0209 10.0731 23.1329 9.87386 23.3321C9.6746 23.5314 9.56266 23.8017 9.56266 24.0834C9.56266 24.3652 9.6746 24.6355 9.87386 24.8347C10.0731 25.034 10.3434 25.1459 10.6252 25.1459C10.907 25.1459 11.1772 25.034 11.3765 24.8347C11.5757 24.6355 11.6877 24.3652 11.6877 24.0834C11.6877 23.8017 11.5757 23.5314 11.3765 23.3321C11.1772 23.1329 10.907 23.0209 10.6252 23.0209ZM7.43766 24.0834C7.43766 23.2381 7.77349 22.4273 8.37126 21.8295C8.96903 21.2318 9.77978 20.8959 10.6252 20.8959C11.4705 20.8959 12.2813 21.2318 12.8791 21.8295C13.4768 22.4273 13.8127 23.2381 13.8127 24.0834C13.8127 24.9288 13.4768 25.7396 12.8791 26.3373C12.2813 26.9351 11.4705 27.2709 10.6252 27.2709C9.77978 27.2709 8.96903 26.9351 8.37126 26.3373C7.77349 25.7396 7.43766 24.9288 7.43766 24.0834ZM17.3543 24.0834C17.3543 23.8017 17.4663 23.5314 17.6655 23.3321C17.8648 23.1329 18.135 23.0209 18.4168 23.0209H25.5002C25.782 23.0209 26.0522 23.1329 26.2515 23.3321C26.4507 23.5314 26.5627 23.8017 26.5627 24.0834C26.5627 24.3652 26.4507 24.6355 26.2515 24.8347C26.0522 25.034 25.782 25.1459 25.5002 25.1459H18.4168C18.135 25.1459 17.8648 25.034 17.6655 24.8347C17.4663 24.6355 17.3543 24.3652 17.3543 24.0834Z" fill="#4753BF"/>
</svg>
