<svg width="34" height="34" viewBox="0 0 34 34" fill="none" xmlns="http://www.w3.org/2000/svg">
<path d="M31.1668 22.6667C31.1668 26.673 31.1668 28.6776 29.9216 29.9214C28.6777 31.1667 26.6732 31.1667 22.6668 31.1667H11.3335C7.32716 31.1667 5.32258 31.1667 4.07875 29.9214C2.8335 28.6776 2.8335 26.673 2.8335 22.6667V17C2.8335 12.9937 2.8335 10.9891 4.07875 9.74525C5.32258 8.5 7.32716 8.5 11.3335 8.5H22.6668C26.6732 8.5 28.6777 8.5 29.9216 9.74525C31.1668 10.9891 31.1668 12.9937 31.1668 17V22.6667Z" stroke="#4753BF" stroke-width="2.125"/>
<path d="M12.75 2.83325L17 7.79159L21.25 2.83325M22.6667 8.49992V31.1666" stroke="#4753BF" stroke-width="2.125" stroke-linecap="round"/>
<path d="M28.3333 22.6666C28.3333 22.2909 28.1841 21.9305 27.9184 21.6649C27.6527 21.3992 27.2924 21.2499 26.9167 21.2499C26.5409 21.2499 26.1806 21.3992 25.9149 21.6649C25.6493 21.9305 25.5 22.2909 25.5 22.6666C25.5 23.0423 25.6493 23.4026 25.9149 23.6683C26.1806 23.934 26.5409 24.0833 26.9167 24.0833C27.2924 24.0833 27.6527 23.934 27.9184 23.6683C28.1841 23.4026 28.3333 23.0423 28.3333 22.6666ZM28.3333 16.9999C28.3333 16.6242 28.1841 16.2639 27.9184 15.9982C27.6527 15.7325 27.2924 15.5833 26.9167 15.5833C26.5409 15.5833 26.1806 15.7325 25.9149 15.9982C25.6493 16.2639 25.5 16.6242 25.5 16.9999C25.5 17.3756 25.6493 17.736 25.9149 18.0017C26.1806 18.2673 26.5409 18.4166 26.9167 18.4166C27.2924 18.4166 27.6527 18.2673 27.9184 18.0017C28.1841 17.736 28.3333 17.3756 28.3333 16.9999Z" fill="#4753BF"/>
<path d="M10 17.0605C10.0004 16.8718 10.051 16.6866 10.1466 16.5239C10.2423 16.3612 10.3795 16.227 10.5443 16.1349C10.709 16.0429 10.8953 15.9964 11.084 16.0002C11.2727 16.004 11.4569 16.058 11.6178 16.1567L16.8085 19.3428C16.9632 19.4378 17.091 19.5709 17.1796 19.7294C17.2682 19.8879 17.3147 20.0664 17.3147 20.248C17.3147 20.4296 17.2682 20.6081 17.1796 20.7666C17.091 20.9251 16.9632 21.0582 16.8085 21.1533L11.6178 24.3408C11.4567 24.4395 11.2722 24.4935 11.0833 24.4972C10.8944 24.5009 10.7079 24.4542 10.5431 24.3618C10.3782 24.2694 10.241 24.1348 10.1456 23.9717C10.0501 23.8086 9.99985 23.6231 10 23.4341V17.0605Z" stroke="#4753BF" stroke-width="1.5" stroke-linecap="round" stroke-linejoin="round"/>
</svg>
