<svg width="30" height="30" viewBox="0 0 30 30" fill="none" xmlns="http://www.w3.org/2000/svg">
<g clip-path="url(#clip0_479_86)">
<path d="M30 15.0002V14.9927C30 10.554 28.0675 6.56774 24.9988 3.82649L24.9838 3.81399C24.9458 3.77316 24.9035 3.73669 24.8575 3.70524L24.855 3.70399C22.1293 1.3112 18.6245 -0.00523246 14.9975 0.00149047C11.2075 0.00149047 7.7475 1.40899 5.11 3.73149L5.12625 3.71774C5.09456 3.74197 5.06526 3.76918 5.03875 3.79899C3.45323 5.20303 2.1841 6.92917 1.31544 8.86066C0.446772 10.7921 -0.00160423 12.8862 4.31267e-06 15.004C4.31267e-06 19.4415 1.93 23.4277 4.99625 26.1702L5.01125 26.1827C5.05114 26.2276 5.09555 26.2682 5.14375 26.304L5.14625 26.3052C7.87105 28.6948 11.3734 30.0093 14.9975 30.0027C18.6386 30.0083 22.1559 28.6816 24.8863 26.2727L24.87 26.2865C26.4831 24.8841 27.7761 23.1515 28.6616 21.2061C29.5471 19.2606 30.0044 17.1477 30.0025 15.0102V15.0015L30 15.0002ZM24.4225 24.7565C23.6792 24.1558 22.8801 23.6276 22.0363 23.179L21.955 23.139C22.7213 20.9302 23.1825 18.384 23.2263 15.7352V15.7152H28.5525C28.3734 19.1421 26.8984 22.3728 24.4263 24.7527L24.4225 24.7565ZM15.715 22.8752C17.3188 22.9615 18.8175 23.314 20.2 23.8877L20.11 23.8552C19.0025 26.3802 17.4438 28.1152 15.715 28.4965V22.8752ZM15.715 21.4452V15.7152H21.8C21.7516 18.0881 21.3402 20.4395 20.58 22.6877L20.6288 22.524C19.0771 21.8852 17.4264 21.5207 15.75 21.4465L15.7163 21.4452H15.715ZM15.715 14.2852V8.55524C17.4365 8.47692 19.1313 8.10007 20.7238 7.44149L20.625 7.47774C21.3188 9.50149 21.745 11.834 21.8 14.259V14.2852H15.715ZM15.715 7.12524V1.50649C17.4438 1.88774 19.0025 3.61524 20.11 6.14774C18.8175 6.68524 17.3188 7.03649 15.7513 7.12399L15.715 7.12524ZM19.2825 2.12524C20.7559 2.61559 22.1336 3.35646 23.355 4.31524L23.3263 4.29274C22.7725 4.72774 22.1513 5.13774 21.4963 5.49399L21.4263 5.52899C20.8984 4.27918 20.1705 3.12365 19.2713 2.10774L19.2825 2.12149V2.12524ZM14.2825 1.51024V7.12524C12.7406 7.04668 11.2236 6.70422 9.7975 6.11274L9.8875 6.14524C11 3.62024 12.5563 1.88649 14.285 1.50524L14.2825 1.51024ZM8.5725 5.52524C7.89509 5.1604 7.24949 4.73933 6.6425 4.26649L6.6725 4.28899C7.85834 3.3583 9.19298 2.63477 10.62 2.14899L10.715 2.12024C9.84019 3.10928 9.1276 4.23068 8.60375 5.44274L8.5725 5.52524ZM14.285 8.55399V14.284H8.2C8.255 11.8327 8.68125 9.50024 9.42375 7.31274L9.375 7.47649C10.9267 8.11213 12.5762 8.47619 14.2513 8.55274L14.285 8.55399ZM14.285 15.714V21.444C12.5635 21.5223 10.8687 21.8992 9.27625 22.5577L9.375 22.5215C8.68125 20.499 8.255 18.1652 8.2 15.7402V15.714H14.285ZM14.285 22.874V28.4927C12.5563 28.1115 10.9975 26.384 9.89 23.8515C11.1825 23.314 12.6813 22.964 14.2488 22.8765L14.285 22.874ZM10.7225 27.874C9.25048 27.3829 7.87317 26.6439 6.65 25.689L6.68 25.7115C7.23375 25.2765 7.855 24.8665 8.51 24.5102L8.58 24.4752C9.10398 25.7253 9.83178 26.8797 10.7338 27.8915L10.7225 27.879V27.874ZM21.4275 24.474C22.1525 24.8677 22.7738 25.2765 23.3575 25.7327L23.3275 25.7102C22.1417 26.6409 20.807 27.3645 19.38 27.8502L19.285 27.879C20.1597 26.8903 20.8723 25.7694 21.3963 24.5577L21.4275 24.4765V24.474ZM28.5525 14.2852H23.2263C23.1872 11.699 22.7409 9.13507 21.9038 6.68774L21.955 6.86024C22.8379 6.3952 23.6739 5.84599 24.4513 5.22024L24.4213 5.24274C26.8892 7.61307 28.3649 10.8321 28.55 14.249L28.5525 14.2852ZM5.5775 5.24399C6.2975 5.82899 7.10625 6.36524 7.96375 6.82149L8.045 6.86149C7.27875 9.07024 6.8175 11.6165 6.77375 14.2652V14.2852H1.44625C1.62537 10.8584 3.1004 7.6277 5.5725 5.24774L5.5775 5.24399ZM1.4475 15.7152H6.77375C6.81284 18.3015 7.25915 20.8654 8.09625 23.3127L8.045 23.1402C7.10625 23.639 6.29875 24.1752 5.54875 24.7802L5.57875 24.7577C3.11083 22.3874 1.63511 19.1683 1.45 15.7515L1.44875 15.7165L1.4475 15.7152Z" fill="white"/>
</g>
<defs>
<clipPath id="clip0_479_86">
<rect width="30" height="30" fill="white"/>
</clipPath>
</defs>
</svg>
